<svg width="909" height="909" viewBox="0 0 909 909" fill="none" xmlns="http://www.w3.org/2000/svg">
<path opacity="0.4" fill-rule="evenodd" clip-rule="evenodd" d="M454.5 2C704.409 2 907 204.591 907 454.5C907 704.409 704.409 907 454.5 907C204.591 907 2 704.409 2 454.5C2 204.591 204.591 2 454.5 2ZM454.5 0C705.513 0 909 203.487 909 454.5C909 705.513 705.513 909 454.5 909C203.487 909 0 705.513 0 454.5C0 203.487 203.487 0 454.5 0ZM453.468 55.5397C674.15 55.5397 853.047 234.437 853.047 455.118C853.047 675.8 674.15 854.697 453.468 854.697C232.787 854.697 53.8896 675.8 53.8896 455.118C53.8896 234.437 232.787 55.5397 453.468 55.5397ZM453.468 53.5397C675.254 53.5397 855.047 233.333 855.047 455.118C855.047 676.904 675.254 856.697 453.468 856.697C231.683 856.697 51.8896 676.904 51.8896 455.118C51.8896 233.333 231.683 53.5397 453.468 53.5397ZM796.311 455.789C796.311 266.055 642.501 112.245 452.766 112.245C263.032 112.245 109.222 266.055 109.222 455.789C109.222 645.524 263.032 799.334 452.766 799.334C642.501 799.334 796.311 645.524 796.311 455.789ZM798.311 455.789C798.311 264.95 643.605 110.245 452.766 110.245C261.927 110.245 107.222 264.95 107.222 455.789C107.222 646.628 261.927 801.334 452.766 801.334C643.605 801.334 798.311 646.628 798.311 455.789ZM454.154 162.874C618.099 162.874 751.003 295.778 751.003 459.723C751.003 623.668 618.099 756.572 454.154 756.572C290.209 756.572 157.305 623.668 157.305 459.723C157.305 295.778 290.209 162.874 454.154 162.874ZM454.154 160.874C619.204 160.874 753.003 294.673 753.003 459.723C753.003 624.773 619.204 758.572 454.154 758.572C289.104 758.572 155.305 624.773 155.305 459.723C155.305 294.673 289.104 160.874 454.154 160.874ZM705.81 453.665C705.81 313.789 592.418 200.397 452.543 200.397C312.667 200.397 199.275 313.789 199.275 453.665C199.275 593.54 312.667 706.932 452.542 706.932C592.418 706.932 705.81 593.54 705.81 453.665ZM707.81 453.665C707.81 312.684 593.523 198.397 452.543 198.397C311.562 198.397 197.275 312.684 197.275 453.665C197.275 594.645 311.562 708.932 452.542 708.932C593.523 708.932 707.81 594.645 707.81 453.665Z" fill="url(#paint0_linear_1254_7928)"/>
<defs>
<linearGradient id="paint0_linear_1254_7928" x1="454" y1="455" x2="454.5" y2="-16.0001" gradientUnits="userSpaceOnUse">
<stop stop-color="#BDE4BC" stop-opacity="0"/>
<stop offset="1" stop-color="#689768"/>
</linearGradient>
</defs>
</svg>
