<svg width="347" height="186" viewBox="0 0 347 186" fill="none" xmlns="http://www.w3.org/2000/svg">
<path opacity="0.8" fill-rule="evenodd" clip-rule="evenodd" d="M174 1.78503C299.427 1.78503 401.106 103.464 401.106 228.891C401.106 354.318 299.427 455.996 174 455.996C48.573 455.996 -53.1056 354.318 -53.1056 228.891C-53.1056 103.464 48.573 1.78503 174 1.78503ZM174 0.78125C299.981 0.78125 402.109 102.909 402.109 228.891C402.109 354.872 299.981 457 174 457C48.0187 457 -54.1094 354.872 -54.1094 228.891C-54.1094 102.909 48.0187 0.78125 174 0.78125ZM173.482 28.6564C284.24 28.6564 374.027 118.443 374.027 229.201C374.027 339.959 284.24 429.746 173.482 429.746C62.7244 429.746 -27.0627 339.959 -27.0627 229.201C-27.0627 118.443 62.7244 28.6564 173.482 28.6564ZM173.482 27.6526C284.795 27.6526 375.031 117.889 375.031 229.201C375.031 340.514 284.795 430.75 173.482 430.75C62.17 430.75 -28.0664 340.514 -28.0664 229.201C-28.0664 117.889 62.17 27.6526 173.482 27.6526ZM345.552 229.538C345.552 134.312 268.356 57.1164 173.13 57.1164C77.9039 57.1164 0.707973 134.312 0.707973 229.538C0.707973 324.764 77.9039 401.96 173.13 401.96C268.356 401.96 345.552 324.764 345.552 229.538ZM346.555 229.538C346.555 133.758 268.91 56.1126 173.13 56.1126C77.3495 56.1126 -0.295807 133.758 -0.295807 229.538C-0.295807 325.319 77.3495 402.964 173.13 402.964C268.91 402.964 346.555 325.319 346.555 229.538ZM173.826 82.5263C256.109 82.5263 322.812 149.23 322.812 231.512C322.812 313.795 256.109 380.498 173.826 380.498C91.5437 380.498 24.8404 313.795 24.8404 231.512C24.8404 149.23 91.5437 82.5263 173.826 82.5263ZM173.826 81.5225C256.663 81.5225 323.816 148.675 323.816 231.512C323.816 314.349 256.663 381.502 173.826 381.502C90.9893 381.502 23.8366 314.349 23.8366 231.512C23.8366 148.675 90.9893 81.5225 173.826 81.5225ZM300.13 228.472C300.13 158.269 243.22 101.359 173.018 101.359C102.815 101.359 45.9051 158.269 45.9051 228.472C45.9051 298.674 102.815 355.584 173.018 355.584C243.22 355.584 300.13 298.674 300.13 228.472ZM301.134 228.472C301.134 157.715 243.774 100.355 173.018 100.355C102.261 100.355 44.9013 157.715 44.9013 228.472C44.9013 299.228 102.261 356.588 173.018 356.588C243.774 356.588 301.134 299.228 301.134 228.472Z" fill="url(#paint0_linear_2532_16017)"/>
<defs>
<linearGradient id="paint0_linear_2532_16017" x1="174.611" y1="262.209" x2="174" y2="-7.24904" gradientUnits="userSpaceOnUse">
<stop stop-color="#689768" stop-opacity="0"/>
<stop offset="1" stop-color="#BDE4BC"/>
</linearGradient>
</defs>
</svg>
